<?xml version="1.0" encoding="UTF-8" standalone="no"?>
<!-- Created with Inkscape (http://www.inkscape.org/) -->

<svg
   xmlns:dc="http://purl.org/dc/elements/1.1/"
   xmlns:cc="http://creativecommons.org/ns#"
   xmlns:rdf="http://www.w3.org/1999/02/22-rdf-syntax-ns#"
   xmlns:svg="http://www.w3.org/2000/svg"
   xmlns="http://www.w3.org/2000/svg"
   xmlns:sodipodi="http://sodipodi.sourceforge.net/DTD/sodipodi-0.dtd"
   xmlns:inkscape="http://www.inkscape.org/namespaces/inkscape"
   version="1.1"
   width="152"
   height="34"
   id="svg2"
   xml:space="preserve"
   inkscape:version="0.48.4 r9939"
   sodipodi:docname="Deezer2.svg"><sodipodi:namedview
     pagecolor="#ffffff"
     bordercolor="#666666"
     borderopacity="1"
     objecttolerance="10"
     gridtolerance="10"
     guidetolerance="10"
     inkscape:pageopacity="0"
     inkscape:pageshadow="2"
     inkscape:window-width="1600"
     inkscape:window-height="837"
     id="namedview45"
     showgrid="false"
     inkscape:zoom="4"
     inkscape:cx="117.40591"
     inkscape:cy="9.9913039"
     inkscape:window-x="-4"
     inkscape:window-y="-4"
     inkscape:window-maximized="1"
     inkscape:current-layer="svg2"
     showguides="true"
     inkscape:guide-bbox="true"
     fit-margin-top="0"
     fit-margin-left="0"
     fit-margin-right="0"
     fit-margin-bottom="0" /><metadata
     id="metadata8"><rdf:RDF><cc:Work
         rdf:about=""><dc:format>image/svg+xml</dc:format><dc:type
           rdf:resource="http://purl.org/dc/dcmitype/StillImage" /><dc:title /></cc:Work></rdf:RDF></metadata><defs
     id="defs6"><clipPath
       id="clipPath18"><path
         d="m 0,0 1417,0 0,314.668 -1417,0 L 0,0 z"
         inkscape:connector-curvature="0"
         id="path20" /></clipPath></defs><g
     id="g3017"
     transform="matrix(0.5,0,0,0.5,1.25,0.549451)"><path
       style="fill:#ed1c24;fill-opacity:1;fill-rule:nonzero;stroke:none"
       id="path22"
       inkscape:connector-curvature="0"
       d="m 0,66.600726 19.799975,0 0,-6.000275 -19.799975,0 0,6.000275 z" /><path
       style="fill:#ed1c24;fill-opacity:1;fill-rule:nonzero;stroke:none"
       id="path24"
       inkscape:connector-curvature="0"
       d="m 0,58.802113 19.799975,0 0,-6.001101 -19.799975,0 0,6.001101 z" /><path
       style="fill:#ed1c24;fill-opacity:1;fill-rule:nonzero;stroke:none"
       id="path26"
       inkscape:connector-curvature="0"
       d="m 0,51.002689 19.799975,0 0,-6.001102 -19.799975,0 0,6.001102 z" /><path
       style="fill:#f6836c;fill-opacity:1;fill-rule:nonzero;stroke:none"
       id="path28"
       inkscape:connector-curvature="0"
       d="m 0,43.201676 19.799975,0 0,-5.998602 -19.799975,0 0,5.998602 z" /><path
       style="fill:#f6836c;fill-opacity:1;fill-rule:nonzero;stroke:none"
       id="path30"
       inkscape:connector-curvature="0"
       d="m 0,35.400475 19.799975,0 0,-5.998603 -19.799975,0 0,5.998604 z" /><path
       style="fill:#fff200;fill-opacity:1;fill-rule:nonzero;stroke:none"
       id="path32"
       inkscape:connector-curvature="0"
       d="m 22.200279,66.600726 19.800801,0 0,-6.000275 -19.800801,0 0,6.000275 z" /><path
       style="fill:#fff200;fill-opacity:1;fill-rule:nonzero;stroke:none"
       id="path34"
       inkscape:connector-curvature="0"
       d="m 22.200279,58.802113 19.800801,0 0,-6.001101 -19.800801,0 0,6.001101 z" /><path
       style="fill:#fff200;fill-opacity:1;fill-rule:nonzero;stroke:none"
       id="path36"
       inkscape:connector-curvature="0"
       d="m 22.200279,51.002689 19.800801,0 0,-6.001102 -19.800801,0 0,6.001102 z" /><path
       style="fill:#ec008c;fill-opacity:1;fill-rule:nonzero;stroke:none"
       id="path38"
       inkscape:connector-curvature="0"
       d="m 44.40056,66.600726 19.800801,0 0,-6.000275 -19.800801,0 0,6.000275 z" /><path
       style="fill:#ec008c;fill-opacity:1;fill-rule:nonzero;stroke:none"
       id="path40"
       inkscape:connector-curvature="0"
       d="m 44.40056,58.802113 19.800801,0 0,-6.001101 -19.800801,0 0,6.001101 z" /><path
       style="fill:#ec008c;fill-opacity:1;fill-rule:nonzero;stroke:none"
       id="path42"
       inkscape:connector-curvature="0"
       d="m 44.40056,51.002689 19.800801,0 0,-6.001102 -19.800801,0 0,6.001102 z" /><path
       style="fill:#f680c5;fill-opacity:1;fill-rule:nonzero;stroke:none"
       id="path44"
       inkscape:connector-curvature="0"
       d="m 44.40056,43.201676 19.800801,0 0,-5.998602 -19.800801,0 0,5.998602 z" /><path
       style="fill:#f680c5;fill-opacity:1;fill-rule:nonzero;stroke:none"
       id="path46"
       inkscape:connector-curvature="0"
       d="m 44.40056,35.400475 19.800801,0 0,-5.998603 -19.800801,0 0,5.998604 z" /><path
       style="fill:#f680c5;fill-opacity:1;fill-rule:nonzero;stroke:none"
       id="path48"
       inkscape:connector-curvature="0"
       d="m 44.40056,27.600967 19.800801,0 0,-6.000276 -19.800801,0 0,6.000276 z" /><path
       style="fill:#f680c5;fill-opacity:1;fill-rule:nonzero;stroke:none"
       id="path50"
       inkscape:connector-curvature="0"
       d="m 44.40056,19.802516 19.800801,0 0,-6.001102 -19.800801,0 0,6.001102 z" /><path
       style="fill:#b2db18;fill-opacity:1;fill-rule:nonzero;stroke:none"
       id="path52"
       inkscape:connector-curvature="0"
       d="m 66.600628,66.600726 19.799973,0 0,-6.000275 -19.799973,0 0,6.000275 z" /><path
       style="fill:#b2db18;fill-opacity:1;fill-rule:nonzero;stroke:none"
       id="path54"
       inkscape:connector-curvature="0"
       d="m 66.600628,58.802113 19.799973,0 0,-6.001101 -19.799973,0 0,6.001101 z" /><path
       style="fill:#b2db18;fill-opacity:1;fill-rule:nonzero;stroke:none"
       id="path56"
       inkscape:connector-curvature="0"
       d="m 66.600628,51.002689 19.799973,0 0,-6.001102 -19.799973,0 0,6.001102 z" /><path
       style="fill:#d9ed84;fill-opacity:1;fill-rule:nonzero;stroke:none"
       id="path58"
       inkscape:connector-curvature="0"
       d="m 66.600628,43.201676 19.799973,0 0,-5.998602 -19.799973,0 0,5.998602 z" /><path
       style="fill:#d9ed84;fill-opacity:1;fill-rule:nonzero;stroke:none"
       id="path60"
       inkscape:connector-curvature="0"
       d="m 66.600628,35.400475 19.799973,0 0,-5.998603 -19.799973,0 0,5.998604 z" /><path
       style="fill:#59caf5;fill-opacity:1;fill-rule:nonzero;stroke:none"
       id="path62"
       inkscape:connector-curvature="0"
       d="m 88.800905,66.600726 19.801625,0 0,-6.000275 -19.801625,0 0,6.000275 z" /><path
       style="fill:#59caf5;fill-opacity:1;fill-rule:nonzero;stroke:none"
       id="path64"
       inkscape:connector-curvature="0"
       d="m 88.800905,58.802113 19.801625,0 0,-6.001101 -19.801625,0 0,6.001101 z" /><path
       style="fill:#59caf5;fill-opacity:1;fill-rule:nonzero;stroke:none"
       id="path66"
       inkscape:connector-curvature="0"
       d="m 88.800905,51.000191 19.801625,0 0,-6.000277 -19.801625,0 0,6.000277 z" /><path
       style="fill:#b2e6fa;fill-opacity:1;fill-rule:nonzero;stroke:none"
       id="path68"
       inkscape:connector-curvature="0"
       d="m 88.800905,43.201676 19.801625,0 0,-6.001102 -19.801625,0 0,6.001101 z" /><path
       style="fill:#b2e6fa;fill-opacity:1;fill-rule:nonzero;stroke:none"
       id="path70"
       inkscape:connector-curvature="0"
       d="m 88.800905,35.400475 19.801625,0 0,-6.001101 -19.801625,0 0,6.001101 z" /><path
       style="fill:#b2e6fa;fill-opacity:1;fill-rule:nonzero;stroke:none"
       id="path72"
       inkscape:connector-curvature="0"
       d="m 88.800905,27.599486 19.801625,0 0,-5.998604 -19.801625,0 0,5.998604 z" /><path
       style="fill:#b2e6fa;fill-opacity:1;fill-rule:nonzero;stroke:none"
       id="path74"
       inkscape:connector-curvature="0"
       d="m 88.800905,19.798282 19.801625,0 0,-5.998604 -19.801625,0 0,5.998604 z" /><path
       style="fill:#b2e6fa;fill-opacity:1;fill-rule:nonzero;stroke:none"
       id="path76"
       inkscape:connector-curvature="0"
       d="m 88.800905,11.998984 19.801625,0 0,-6.0002747 -19.801625,0 0,6.0002747 z" /><path
       style="fill:#231f20;fill-opacity:1;fill-rule:nonzero;stroke:none"
       id="path78"
       inkscape:connector-curvature="0"
       d="m 125.39709,58.850902 4.65075,0 c 6.82796,0 7.94598,-3.59834 7.94598,-15.037508 l 0,-22.874014 c 0,-9.872366 -0.84518,-13.1919395 -8.68173,-13.1919395 l -3.915,0 0,51.1034615 z M 116.40039,5e-7 l 14.8457,0 c 14.94391,0 16.35445,5.2296587 16.35445,24.6020665 l 0,19.798492 c 0,17.065596 -3.43218,22.200167 -18.00249,22.200167 l -13.19766,0 L 116.40039,5e-7" /><path
       style="fill:#231f20;fill-opacity:1;fill-rule:nonzero;stroke:none"
       id="path80"
       inkscape:connector-curvature="0"
       d="m 151.19719,5e-7 25.20087,0 0,7.9167737 -16.20078,0 0,20.8832848 14.99936,0 0,7.801839 -14.99936,0 0,22.087777 16.20078,0 0,7.911051 -25.20087,0 L 151.19719,5e-7" /><path
       style="fill:#231f20;fill-opacity:1;fill-rule:nonzero;stroke:none"
       id="path82"
       inkscape:connector-curvature="0"
       d="m 179.99895,5e-7 25.19917,0 0,7.9167737 -16.1993,0 0,20.8832848 15.00021,0 0,7.801839 -15.00021,0 0,22.087777 16.1993,0 0,7.911051 -25.19917,0 L 179.99895,5e-7" /><path
       style="fill:#231f20;fill-opacity:1;fill-rule:nonzero;stroke:none"
       id="path84"
       inkscape:connector-curvature="0"
       d="m 241.79577,5e-7 25.20109,0 0,7.9167737 -16.20098,0 0,20.8832848 15.00296,0 0,7.801839 -15.00296,0 0,22.087777 16.20098,0 0,7.911051 -25.20108,0 L 241.79578,5e-7" /><path
       style="fill:#231f20;fill-opacity:1;fill-rule:nonzero;stroke:none"
       id="path86"
       inkscape:connector-curvature="0"
       d="m 208.79709,58.799631 20.73471,-51.0010792 -20.73471,0 0,-7.7984513 29.39823,0 0,7.7984513 -20.37717,51.0010792 20.37717,0 0,7.801097 -29.39823,-0.0041 0,-7.796963" /><path
       style="fill:#231f20;fill-opacity:1;fill-rule:nonzero;stroke:none"
       id="path88"
       inkscape:connector-curvature="0"
       d="m 279.59741,29.397698 2.7919,0 c 7.28769,0 8.39894,-0.899587 8.39894,-10.860217 0,-9.8723642 -0.88477,-10.7429517 -6.59765,-10.7429517 l -4.59319,0 0,21.6031687 z m -9.00007,-29.3975975 14.3997,0 c 13.46837,0 14.41241,3.4311237 14.41241,18.0056735 0,8.944628 -0.84456,13.318517 -8.40952,15.622937 l 0,0 c 6.2717,0.644737 8.42012,3.919016 8.42012,10.188806 l 0,14.481882 c 0,2.401934 0.0169,5.528977 0.57995,8.297195 l -9.00007,0 c -0.92712,-1.661917 -0.5948,-3.297386 -0.5948,-5.97381 l 0,-15.034142 c 0,-6.273073 -1.19167,-7.790303 -7.28134,-7.790303 l -3.52638,0 0,28.802389 -9.00007,-0.0041 0,-66.5964935" /></g></svg>